# MagicaVoxel @ Ephtracy

# group
g ringue

# material
mtllib ringue.mtl
usemtl palette

# normals
vn -1 0 0
vn 1 0 0
vn 0 0 1
vn 0 0 -1
vn 0 -1 0
vn 0 1 0

# texcoords
vt 0.970703 0.5
vt 0.974609 0.5
vt 0.978516 0.5

# verts
v -63 0 63
v -63 0 -63
v -63 26 63
v -63 26 -63
v -59 38 58
v -59 38 -63
v -59 40 58
v -59 40 -63
v -59 58 58
v -59 58 -63
v -59 60 58
v -59 60 -63
v -59 79 58
v -59 79 -63
v -59 81 58
v -59 81 -63
v -58 37 58
v -58 37 -63
v -58 38 59
v -58 38 58
v -58 38 -63
v -58 40 59
v -58 40 58
v -58 40 -63
v -58 41 58
v -58 41 -63
v -58 57 58
v -58 57 -63
v -58 58 59
v -58 58 58
v -58 58 -63
v -58 60 59
v -58 60 58
v -58 60 -63
v -58 61 58
v -58 61 -63
v -58 78 58
v -58 78 -63
v -58 79 59
v -58 79 58
v -58 79 -63
v -58 81 59
v -58 81 58
v -58 81 -63
v -58 82 58
v -58 82 -63
v -55 26 55
v -55 26 38
v -55 38 55
v -55 38 38
v -55 40 55
v -55 40 38
v -55 58 55
v -55 58 38
v -55 60 55
v -55 60 38
v -55 79 55
v -55 79 38
v -55 81 55
v -55 81 38
v -55 94 55
v -55 94 38
v -56 37 56
v -56 37 -63
v -56 38 56
v -56 38 -63
v -56 40 56
v -56 40 -63
v -56 41 56
v -56 41 -63
v -56 57 56
v -56 57 -63
v -56 58 56
v -56 58 -63
v -56 60 56
v -56 60 -63
v -56 61 56
v -56 61 -63
v -56 78 56
v -56 78 -63
v -56 79 56
v -56 79 -63
v -56 81 56
v -56 81 -63
v -56 82 56
v -56 82 -63
v -55 38 38
v -55 38 -63
v -55 40 38
v -55 40 -63
v -55 58 38
v -55 58 -63
v -55 60 38
v -55 60 -63
v -55 79 38
v -55 79 -63
v -55 81 38
v -55 81 -63
v -54 26 39
v -54 26 38
v -54 94 39
v -54 94 38
v -53 26 40
v -53 26 39
v -53 94 40
v -53 94 39
v -52 26 41
v -52 26 40
v -52 94 41
v -52 94 40
v -51 26 42
v -51 26 41
v -51 94 42
v -51 94 41
v -50 26 43
v -50 26 42
v -50 94 43
v -50 94 42
v -49 26 44
v -49 26 43
v -49 94 44
v -49 94 43
v -48 26 45
v -48 26 44
v -48 94 45
v -48 94 44
v -47 26 46
v -47 26 45
v -47 94 46
v -47 94 45
v -46 26 47
v -46 26 46
v -46 94 47
v -46 94 46
v -45 26 48
v -45 26 47
v -45 94 48
v -45 94 47
v -44 26 49
v -44 26 48
v -44 94 49
v -44 94 48
v -43 26 50
v -43 26 49
v -43 94 50
v -43 94 49
v -42 26 51
v -42 26 50
v -42 94 51
v -42 94 50
v -41 26 52
v -41 26 51
v -41 94 52
v -41 94 51
v -40 26 53
v -40 26 52
v -40 94 53
v -40 94 52
v -39 26 54
v -39 26 53
v -39 94 54
v -39 94 53
v -38 26 55
v -38 26 54
v -38 38 55
v -38 40 55
v -38 58 55
v -38 60 55
v -38 79 55
v -38 81 55
v -38 94 55
v -38 94 54
v 63 0 63
v 63 0 -63
v 63 26 63
v 63 26 -63
v 63 37 58
v 63 37 56
v 63 38 59
v 63 38 58
v 63 38 56
v 63 38 55
v 63 40 59
v 63 40 58
v 63 40 56
v 63 40 55
v 63 41 58
v 63 41 56
v 63 57 58
v 63 57 56
v 63 58 59
v 63 58 58
v 63 58 56
v 63 58 55
v 63 60 59
v 63 60 58
v 63 60 56
v 63 60 55
v 63 61 58
v 63 61 56
v 63 78 58
v 63 78 56
v 63 79 59
v 63 79 58
v 63 79 56
v 63 79 55
v 63 81 59
v 63 81 58
v 63 81 56
v 63 81 55
v 63 82 58
v 63 82 56
v -63 0 63
v -63 26 63
v 63 0 63
v 63 26 63
v -58 38 59
v -58 40 59
v -58 58 59
v -58 60 59
v -58 79 59
v -58 81 59
v 63 38 59
v 63 40 59
v 63 58 59
v 63 60 59
v 63 79 59
v 63 81 59
v -59 38 58
v -59 40 58
v -59 58 58
v -59 60 58
v -59 79 58
v -59 81 58
v -58 37 58
v -58 38 58
v -58 40 58
v -58 41 58
v -58 57 58
v -58 58 58
v -58 60 58
v -58 61 58
v -58 78 58
v -58 79 58
v -58 81 58
v -58 82 58
v 63 37 58
v 63 38 58
v 63 40 58
v 63 41 58
v 63 57 58
v 63 58 58
v 63 60 58
v 63 61 58
v 63 78 58
v 63 79 58
v 63 81 58
v 63 82 58
v -55 26 55
v -55 38 55
v -55 40 55
v -55 58 55
v -55 60 55
v -55 79 55
v -55 81 55
v -55 94 55
v -38 26 55
v -38 38 55
v -38 40 55
v -38 58 55
v -38 60 55
v -38 79 55
v -38 81 55
v -38 94 55
v -56 37 56
v -56 38 56
v -56 40 56
v -56 41 56
v -56 57 56
v -56 58 56
v -56 60 56
v -56 61 56
v -56 78 56
v -56 79 56
v -56 81 56
v -56 82 56
v 63 37 56
v 63 38 56
v 63 40 56
v 63 41 56
v 63 57 56
v 63 58 56
v 63 60 56
v 63 61 56
v 63 78 56
v 63 79 56
v 63 81 56
v 63 82 56
v -38 38 55
v -38 40 55
v -38 58 55
v -38 60 55
v -38 79 55
v -38 81 55
v 63 38 55
v 63 40 55
v 63 58 55
v 63 60 55
v 63 79 55
v 63 81 55
v -39 26 54
v -39 94 54
v -38 26 54
v -38 94 54
v -40 26 53
v -40 94 53
v -39 26 53
v -39 94 53
v -41 26 52
v -41 94 52
v -40 26 52
v -40 94 52
v -42 26 51
v -42 94 51
v -41 26 51
v -41 94 51
v -43 26 50
v -43 94 50
v -42 26 50
v -42 94 50
v -44 26 49
v -44 94 49
v -43 26 49
v -43 94 49
v -45 26 48
v -45 94 48
v -44 26 48
v -44 94 48
v -46 26 47
v -46 94 47
v -45 26 47
v -45 94 47
v -47 26 46
v -47 94 46
v -46 26 46
v -46 94 46
v -48 26 45
v -48 94 45
v -47 26 45
v -47 94 45
v -49 26 44
v -49 94 44
v -48 26 44
v -48 94 44
v -50 26 43
v -50 94 43
v -49 26 43
v -49 94 43
v -51 26 42
v -51 94 42
v -50 26 42
v -50 94 42
v -52 26 41
v -52 94 41
v -51 26 41
v -51 94 41
v -53 26 40
v -53 94 40
v -52 26 40
v -52 94 40
v -54 26 39
v -54 94 39
v -53 26 39
v -53 94 39
v -55 26 38
v -55 38 38
v -55 40 38
v -55 58 38
v -55 60 38
v -55 79 38
v -55 81 38
v -55 94 38
v -54 26 38
v -54 94 38
v -63 0 -63
v -63 26 -63
v -59 38 -63
v -59 40 -63
v -59 58 -63
v -59 60 -63
v -59 79 -63
v -59 81 -63
v -58 37 -63
v -58 38 -63
v -58 40 -63
v -58 41 -63
v -58 57 -63
v -58 58 -63
v -58 60 -63
v -58 61 -63
v -58 78 -63
v -58 79 -63
v -58 81 -63
v -58 82 -63
v -56 37 -63
v -56 38 -63
v -56 40 -63
v -56 41 -63
v -56 57 -63
v -56 58 -63
v -56 60 -63
v -56 61 -63
v -56 78 -63
v -56 79 -63
v -56 81 -63
v -56 82 -63
v -55 38 -63
v -55 40 -63
v -55 58 -63
v -55 60 -63
v -55 79 -63
v -55 81 -63
v 63 0 -63
v 63 26 -63
v -63 0 63
v 63 0 63
v -63 0 -63
v 63 0 -63
v -58 37 58
v 63 37 58
v -56 37 56
v 63 37 56
v -58 37 -63
v -56 37 -63
v -58 38 59
v 63 38 59
v -59 38 58
v -58 38 58
v 63 38 58
v -56 38 56
v 63 38 56
v -55 38 55
v -38 38 55
v 63 38 55
v -55 38 38
v -59 38 -63
v -58 38 -63
v -56 38 -63
v -55 38 -63
v -58 57 58
v 63 57 58
v -56 57 56
v 63 57 56
v -58 57 -63
v -56 57 -63
v -58 58 59
v 63 58 59
v -59 58 58
v -58 58 58
v 63 58 58
v -56 58 56
v 63 58 56
v -55 58 55
v -38 58 55
v 63 58 55
v -55 58 38
v -59 58 -63
v -58 58 -63
v -56 58 -63
v -55 58 -63
v -58 78 58
v 63 78 58
v -56 78 56
v 63 78 56
v -58 78 -63
v -56 78 -63
v -58 79 59
v 63 79 59
v -59 79 58
v -58 79 58
v 63 79 58
v -56 79 56
v 63 79 56
v -55 79 55
v -38 79 55
v 63 79 55
v -55 79 38
v -59 79 -63
v -58 79 -63
v -56 79 -63
v -55 79 -63
v -63 26 63
v 63 26 63
v -55 26 55
v -38 26 55
v -39 26 54
v -38 26 54
v -40 26 53
v -39 26 53
v -41 26 52
v -40 26 52
v -42 26 51
v -41 26 51
v -43 26 50
v -42 26 50
v -44 26 49
v -43 26 49
v -45 26 48
v -44 26 48
v -46 26 47
v -45 26 47
v -47 26 46
v -46 26 46
v -48 26 45
v -47 26 45
v -49 26 44
v -48 26 44
v -50 26 43
v -49 26 43
v -51 26 42
v -50 26 42
v -52 26 41
v -51 26 41
v -53 26 40
v -52 26 40
v -54 26 39
v -53 26 39
v -55 26 38
v -54 26 38
v -63 26 -63
v 63 26 -63
v -58 40 59
v 63 40 59
v -59 40 58
v -58 40 58
v 63 40 58
v -56 40 56
v 63 40 56
v -55 40 55
v -38 40 55
v 63 40 55
v -55 40 38
v -59 40 -63
v -58 40 -63
v -56 40 -63
v -55 40 -63
v -58 41 58
v 63 41 58
v -56 41 56
v 63 41 56
v -58 41 -63
v -56 41 -63
v -58 60 59
v 63 60 59
v -59 60 58
v -58 60 58
v 63 60 58
v -56 60 56
v 63 60 56
v -55 60 55
v -38 60 55
v 63 60 55
v -55 60 38
v -59 60 -63
v -58 60 -63
v -56 60 -63
v -55 60 -63
v -58 61 58
v 63 61 58
v -56 61 56
v 63 61 56
v -58 61 -63
v -56 61 -63
v -58 81 59
v 63 81 59
v -59 81 58
v -58 81 58
v 63 81 58
v -56 81 56
v 63 81 56
v -55 81 55
v -38 81 55
v 63 81 55
v -55 81 38
v -59 81 -63
v -58 81 -63
v -56 81 -63
v -55 81 -63
v -58 82 58
v 63 82 58
v -56 82 56
v 63 82 56
v -58 82 -63
v -56 82 -63
v -55 94 55
v -38 94 55
v -39 94 54
v -38 94 54
v -40 94 53
v -39 94 53
v -41 94 52
v -40 94 52
v -42 94 51
v -41 94 51
v -43 94 50
v -42 94 50
v -44 94 49
v -43 94 49
v -45 94 48
v -44 94 48
v -46 94 47
v -45 94 47
v -47 94 46
v -46 94 46
v -48 94 45
v -47 94 45
v -49 94 44
v -48 94 44
v -50 94 43
v -49 94 43
v -51 94 42
v -50 94 42
v -52 94 41
v -51 94 41
v -53 94 40
v -52 94 40
v -54 94 39
v -53 94 39
v -55 94 38
v -54 94 38

# faces
f 3/1/1 2/1/1 1/1/1
f 4/1/1 2/1/1 3/1/1
f 7/3/1 6/3/1 5/3/1
f 8/3/1 6/3/1 7/3/1
f 11/3/1 10/3/1 9/3/1
f 12/3/1 10/3/1 11/3/1
f 15/3/1 14/3/1 13/3/1
f 16/3/1 14/3/1 15/3/1
f 20/3/1 18/3/1 17/3/1
f 21/3/1 18/3/1 20/3/1
f 22/3/1 20/3/1 19/3/1
f 23/3/1 20/3/1 22/3/1
f 25/3/1 24/3/1 23/3/1
f 26/3/1 24/3/1 25/3/1
f 30/3/1 28/3/1 27/3/1
f 31/3/1 28/3/1 30/3/1
f 32/3/1 30/3/1 29/3/1
f 33/3/1 30/3/1 32/3/1
f 35/3/1 34/3/1 33/3/1
f 36/3/1 34/3/1 35/3/1
f 40/3/1 38/3/1 37/3/1
f 41/3/1 38/3/1 40/3/1
f 42/3/1 40/3/1 39/3/1
f 43/3/1 40/3/1 42/3/1
f 45/3/1 44/3/1 43/3/1
f 46/3/1 44/3/1 45/3/1
f 49/2/1 48/2/1 47/2/1
f 50/2/1 48/2/1 49/2/1
f 53/2/1 52/2/1 51/2/1
f 54/2/1 52/2/1 53/2/1
f 57/2/1 56/2/1 55/2/1
f 58/2/1 56/2/1 57/2/1
f 61/2/1 60/2/1 59/2/1
f 62/2/1 60/2/1 61/2/1
f 63/3/2 64/3/2 65/3/2
f 65/3/2 64/3/2 66/3/2
f 67/3/2 68/3/2 69/3/2
f 69/3/2 68/3/2 70/3/2
f 71/3/2 72/3/2 73/3/2
f 73/3/2 72/3/2 74/3/2
f 75/3/2 76/3/2 77/3/2
f 77/3/2 76/3/2 78/3/2
f 79/3/2 80/3/2 81/3/2
f 81/3/2 80/3/2 82/3/2
f 83/3/2 84/3/2 85/3/2
f 85/3/2 84/3/2 86/3/2
f 87/3/2 88/3/2 89/3/2
f 89/3/2 88/3/2 90/3/2
f 91/3/2 92/3/2 93/3/2
f 93/3/2 92/3/2 94/3/2
f 95/3/2 96/3/2 97/3/2
f 97/3/2 96/3/2 98/3/2
f 99/2/2 100/2/2 101/2/2
f 101/2/2 100/2/2 102/2/2
f 103/2/2 104/2/2 105/2/2
f 105/2/2 104/2/2 106/2/2
f 107/2/2 108/2/2 109/2/2
f 109/2/2 108/2/2 110/2/2
f 111/2/2 112/2/2 113/2/2
f 113/2/2 112/2/2 114/2/2
f 115/2/2 116/2/2 117/2/2
f 117/2/2 116/2/2 118/2/2
f 119/2/2 120/2/2 121/2/2
f 121/2/2 120/2/2 122/2/2
f 123/2/2 124/2/2 125/2/2
f 125/2/2 124/2/2 126/2/2
f 127/2/2 128/2/2 129/2/2
f 129/2/2 128/2/2 130/2/2
f 131/2/2 132/2/2 133/2/2
f 133/2/2 132/2/2 134/2/2
f 135/2/2 136/2/2 137/2/2
f 137/2/2 136/2/2 138/2/2
f 139/2/2 140/2/2 141/2/2
f 141/2/2 140/2/2 142/2/2
f 143/2/2 144/2/2 145/2/2
f 145/2/2 144/2/2 146/2/2
f 147/2/2 148/2/2 149/2/2
f 149/2/2 148/2/2 150/2/2
f 151/2/2 152/2/2 153/2/2
f 153/2/2 152/2/2 154/2/2
f 155/2/2 156/2/2 157/2/2
f 157/2/2 156/2/2 158/2/2
f 159/2/2 160/2/2 161/2/2
f 161/2/2 160/2/2 162/2/2
f 163/2/2 164/2/2 165/2/2
f 165/2/2 164/2/2 166/2/2
f 166/2/2 164/2/2 167/2/2
f 167/2/2 164/2/2 168/2/2
f 168/2/2 164/2/2 169/2/2
f 169/2/2 164/2/2 170/2/2
f 170/2/2 164/2/2 171/2/2
f 171/2/2 164/2/2 172/2/2
f 173/1/2 174/1/2 175/1/2
f 175/1/2 174/1/2 176/1/2
f 177/3/2 178/3/2 180/3/2
f 180/3/2 178/3/2 181/3/2
f 179/3/2 180/3/2 183/3/2
f 181/3/2 182/3/2 183/3/2
f 180/3/2 181/3/2 183/3/2
f 183/3/2 182/3/2 184/3/2
f 184/3/2 182/3/2 185/3/2
f 185/3/2 182/3/2 186/3/2
f 184/3/2 185/3/2 187/3/2
f 187/3/2 185/3/2 188/3/2
f 189/3/2 190/3/2 192/3/2
f 192/3/2 190/3/2 193/3/2
f 192/3/2 193/3/2 195/3/2
f 193/3/2 194/3/2 195/3/2
f 191/3/2 192/3/2 195/3/2
f 195/3/2 194/3/2 196/3/2
f 196/3/2 194/3/2 197/3/2
f 197/3/2 194/3/2 198/3/2
f 196/3/2 197/3/2 199/3/2
f 199/3/2 197/3/2 200/3/2
f 201/3/2 202/3/2 204/3/2
f 204/3/2 202/3/2 205/3/2
f 204/3/2 205/3/2 207/3/2
f 205/3/2 206/3/2 207/3/2
f 203/3/2 204/3/2 207/3/2
f 207/3/2 206/3/2 208/3/2
f 208/3/2 206/3/2 209/3/2
f 209/3/2 206/3/2 210/3/2
f 208/3/2 209/3/2 211/3/2
f 211/3/2 209/3/2 212/3/2
f 215/1/3 214/1/3 213/1/3
f 216/1/3 214/1/3 215/1/3
f 223/3/3 218/3/3 217/3/3
f 224/3/3 218/3/3 223/3/3
f 225/3/3 220/3/3 219/3/3
f 226/3/3 220/3/3 225/3/3
f 227/3/3 222/3/3 221/3/3
f 228/3/3 222/3/3 227/3/3
f 236/3/3 230/3/3 229/3/3
f 237/3/3 230/3/3 236/3/3
f 240/3/3 232/3/3 231/3/3
f 241/3/3 232/3/3 240/3/3
f 244/3/3 234/3/3 233/3/3
f 245/3/3 234/3/3 244/3/3
f 247/3/3 236/3/3 235/3/3
f 248/3/3 236/3/3 247/3/3
f 249/3/3 238/3/3 237/3/3
f 250/3/3 238/3/3 249/3/3
f 251/3/3 240/3/3 239/3/3
f 252/3/3 240/3/3 251/3/3
f 253/3/3 242/3/3 241/3/3
f 254/3/3 242/3/3 253/3/3
f 255/3/3 244/3/3 243/3/3
f 256/3/3 244/3/3 255/3/3
f 257/3/3 246/3/3 245/3/3
f 258/3/3 246/3/3 257/3/3
f 267/2/3 260/2/3 259/2/3
f 268/2/3 260/2/3 267/2/3
f 269/2/3 262/2/3 261/2/3
f 270/2/3 262/2/3 269/2/3
f 271/2/3 264/2/3 263/2/3
f 272/2/3 264/2/3 271/2/3
f 273/2/3 266/2/3 265/2/3
f 274/2/3 266/2/3 273/2/3
f 275/3/4 276/3/4 287/3/4
f 287/3/4 276/3/4 288/3/4
f 277/3/4 278/3/4 289/3/4
f 289/3/4 278/3/4 290/3/4
f 279/3/4 280/3/4 291/3/4
f 291/3/4 280/3/4 292/3/4
f 281/3/4 282/3/4 293/3/4
f 293/3/4 282/3/4 294/3/4
f 283/3/4 284/3/4 295/3/4
f 295/3/4 284/3/4 296/3/4
f 285/3/4 286/3/4 297/3/4
f 297/3/4 286/3/4 298/3/4
f 299/3/4 300/3/4 305/3/4
f 305/3/4 300/3/4 306/3/4
f 301/3/4 302/3/4 307/3/4
f 307/3/4 302/3/4 308/3/4
f 303/3/4 304/3/4 309/3/4
f 309/3/4 304/3/4 310/3/4
f 311/2/4 312/2/4 313/2/4
f 313/2/4 312/2/4 314/2/4
f 315/2/4 316/2/4 317/2/4
f 317/2/4 316/2/4 318/2/4
f 319/2/4 320/2/4 321/2/4
f 321/2/4 320/2/4 322/2/4
f 323/2/4 324/2/4 325/2/4
f 325/2/4 324/2/4 326/2/4
f 327/2/4 328/2/4 329/2/4
f 329/2/4 328/2/4 330/2/4
f 331/2/4 332/2/4 333/2/4
f 333/2/4 332/2/4 334/2/4
f 335/2/4 336/2/4 337/2/4
f 337/2/4 336/2/4 338/2/4
f 339/2/4 340/2/4 341/2/4
f 341/2/4 340/2/4 342/2/4
f 343/2/4 344/2/4 345/2/4
f 345/2/4 344/2/4 346/2/4
f 347/2/4 348/2/4 349/2/4
f 349/2/4 348/2/4 350/2/4
f 351/2/4 352/2/4 353/2/4
f 353/2/4 352/2/4 354/2/4
f 355/2/4 356/2/4 357/2/4
f 357/2/4 356/2/4 358/2/4
f 359/2/4 360/2/4 361/2/4
f 361/2/4 360/2/4 362/2/4
f 363/2/4 364/2/4 365/2/4
f 365/2/4 364/2/4 366/2/4
f 367/2/4 368/2/4 369/2/4
f 369/2/4 368/2/4 370/2/4
f 371/2/4 372/2/4 373/2/4
f 373/2/4 372/2/4 374/2/4
f 375/2/4 376/2/4 383/2/4
f 381/2/4 382/2/4 383/2/4
f 380/2/4 381/2/4 383/2/4
f 379/2/4 380/2/4 383/2/4
f 378/2/4 379/2/4 383/2/4
f 377/2/4 378/2/4 383/2/4
f 376/2/4 377/2/4 383/2/4
f 383/2/4 382/2/4 384/2/4
f 387/3/4 388/3/4 394/3/4
f 394/3/4 388/3/4 395/3/4
f 389/3/4 390/3/4 398/3/4
f 398/3/4 390/3/4 399/3/4
f 391/3/4 392/3/4 402/3/4
f 402/3/4 392/3/4 403/3/4
f 395/3/4 396/3/4 405/3/4
f 393/3/4 394/3/4 405/3/4
f 394/3/4 395/3/4 405/3/4
f 405/3/4 396/3/4 406/3/4
f 406/3/4 396/3/4 407/3/4
f 407/3/4 396/3/4 408/3/4
f 399/3/4 400/3/4 409/3/4
f 397/3/4 398/3/4 409/3/4
f 398/3/4 399/3/4 409/3/4
f 409/3/4 400/3/4 410/3/4
f 410/3/4 400/3/4 411/3/4
f 411/3/4 400/3/4 412/3/4
f 403/3/4 404/3/4 413/3/4
f 402/3/4 403/3/4 413/3/4
f 401/3/4 402/3/4 413/3/4
f 413/3/4 404/3/4 414/3/4
f 414/3/4 404/3/4 415/3/4
f 415/3/4 404/3/4 416/3/4
f 406/3/4 407/3/4 417/3/4
f 417/3/4 407/3/4 418/3/4
f 410/3/4 411/3/4 419/3/4
f 419/3/4 411/3/4 420/3/4
f 414/3/4 415/3/4 421/3/4
f 421/3/4 415/3/4 422/3/4
f 385/1/4 386/1/4 423/1/4
f 423/1/4 386/1/4 424/1/4
f 427/1/5 426/1/5 425/1/5
f 428/1/5 426/1/5 427/1/5
f 431/3/5 430/3/5 429/3/5
f 432/3/5 430/3/5 431/3/5
f 433/3/5 431/3/5 429/3/5
f 434/3/5 431/3/5 433/3/5
f 438/3/5 436/3/5 435/3/5
f 439/3/5 436/3/5 438/3/5
f 442/3/5 441/3/5 440/3/5
f 443/3/5 441/3/5 442/3/5
f 444/3/5 441/3/5 443/3/5
f 445/3/5 442/3/5 440/3/5
f 446/3/5 438/3/5 437/3/5
f 447/3/5 438/3/5 446/3/5
f 448/3/5 445/3/5 440/3/5
f 449/3/5 445/3/5 448/3/5
f 452/3/5 451/3/5 450/3/5
f 453/3/5 451/3/5 452/3/5
f 454/3/5 452/3/5 450/3/5
f 455/3/5 452/3/5 454/3/5
f 459/3/5 457/3/5 456/3/5
f 460/3/5 457/3/5 459/3/5
f 463/3/5 462/3/5 461/3/5
f 464/3/5 462/3/5 463/3/5
f 465/3/5 462/3/5 464/3/5
f 466/3/5 463/3/5 461/3/5
f 467/3/5 459/3/5 458/3/5
f 468/3/5 459/3/5 467/3/5
f 469/3/5 466/3/5 461/3/5
f 470/3/5 466/3/5 469/3/5
f 473/3/5 472/3/5 471/3/5
f 474/3/5 472/3/5 473/3/5
f 475/3/5 473/3/5 471/3/5
f 476/3/5 473/3/5 475/3/5
f 480/3/5 478/3/5 477/3/5
f 481/3/5 478/3/5 480/3/5
f 484/3/5 483/3/5 482/3/5
f 485/3/5 483/3/5 484/3/5
f 486/3/5 483/3/5 485/3/5
f 487/3/5 484/3/5 482/3/5
f 488/3/5 480/3/5 479/3/5
f 489/3/5 480/3/5 488/3/5
f 490/3/5 487/3/5 482/3/5
f 491/3/5 487/3/5 490/3/5
f 492/1/6 493/1/6 494/1/6
f 494/1/6 493/1/6 495/1/6
f 495/1/6 493/1/6 497/1/6
f 496/1/6 497/1/6 499/1/6
f 498/1/6 499/1/6 501/1/6
f 500/1/6 501/1/6 503/1/6
f 502/1/6 503/1/6 505/1/6
f 504/1/6 505/1/6 507/1/6
f 506/1/6 507/1/6 509/1/6
f 508/1/6 509/1/6 511/1/6
f 510/1/6 511/1/6 513/1/6
f 512/1/6 513/1/6 515/1/6
f 514/1/6 515/1/6 517/1/6
f 516/1/6 517/1/6 519/1/6
f 518/1/6 519/1/6 521/1/6
f 520/1/6 521/1/6 523/1/6
f 522/1/6 523/1/6 525/1/6
f 524/1/6 525/1/6 527/1/6
f 492/1/6 494/1/6 528/1/6
f 526/1/6 527/1/6 529/1/6
f 492/1/6 528/1/6 530/1/6
f 528/1/6 529/1/6 530/1/6
f 529/1/6 527/1/6 531/1/6
f 530/1/6 529/1/6 531/1/6
f 497/1/6 493/1/6 531/1/6
f 499/1/6 497/1/6 531/1/6
f 527/1/6 525/1/6 531/1/6
f 501/1/6 499/1/6 531/1/6
f 525/1/6 523/1/6 531/1/6
f 503/1/6 501/1/6 531/1/6
f 523/1/6 521/1/6 531/1/6
f 505/1/6 503/1/6 531/1/6
f 521/1/6 519/1/6 531/1/6
f 507/1/6 505/1/6 531/1/6
f 519/1/6 517/1/6 531/1/6
f 509/1/6 507/1/6 531/1/6
f 517/1/6 515/1/6 531/1/6
f 511/1/6 509/1/6 531/1/6
f 515/1/6 513/1/6 531/1/6
f 513/1/6 511/1/6 531/1/6
f 532/3/6 533/3/6 535/3/6
f 535/3/6 533/3/6 536/3/6
f 537/3/6 538/3/6 539/3/6
f 539/3/6 538/3/6 540/3/6
f 540/3/6 538/3/6 541/3/6
f 537/3/6 539/3/6 542/3/6
f 534/3/6 535/3/6 543/3/6
f 543/3/6 535/3/6 544/3/6
f 537/3/6 542/3/6 545/3/6
f 545/3/6 542/3/6 546/3/6
f 547/3/6 548/3/6 549/3/6
f 549/3/6 548/3/6 550/3/6
f 547/3/6 549/3/6 551/3/6
f 551/3/6 549/3/6 552/3/6
f 553/3/6 554/3/6 556/3/6
f 556/3/6 554/3/6 557/3/6
f 558/3/6 559/3/6 560/3/6
f 560/3/6 559/3/6 561/3/6
f 561/3/6 559/3/6 562/3/6
f 558/3/6 560/3/6 563/3/6
f 555/3/6 556/3/6 564/3/6
f 564/3/6 556/3/6 565/3/6
f 558/3/6 563/3/6 566/3/6
f 566/3/6 563/3/6 567/3/6
f 568/3/6 569/3/6 570/3/6
f 570/3/6 569/3/6 571/3/6
f 568/3/6 570/3/6 572/3/6
f 572/3/6 570/3/6 573/3/6
f 574/3/6 575/3/6 577/3/6
f 577/3/6 575/3/6 578/3/6
f 579/3/6 580/3/6 581/3/6
f 581/3/6 580/3/6 582/3/6
f 582/3/6 580/3/6 583/3/6
f 579/3/6 581/3/6 584/3/6
f 576/3/6 577/3/6 585/3/6
f 585/3/6 577/3/6 586/3/6
f 579/3/6 584/3/6 587/3/6
f 587/3/6 584/3/6 588/3/6
f 589/3/6 590/3/6 591/3/6
f 591/3/6 590/3/6 592/3/6
f 589/3/6 591/3/6 593/3/6
f 593/3/6 591/3/6 594/3/6
f 595/2/6 596/2/6 597/2/6
f 597/2/6 596/2/6 598/2/6
f 595/2/6 597/2/6 599/2/6
f 599/2/6 597/2/6 600/2/6
f 595/2/6 599/2/6 601/2/6
f 601/2/6 599/2/6 602/2/6
f 595/2/6 601/2/6 603/2/6
f 603/2/6 601/2/6 604/2/6
f 595/2/6 603/2/6 605/2/6
f 605/2/6 603/2/6 606/2/6
f 595/2/6 605/2/6 607/2/6
f 607/2/6 605/2/6 608/2/6
f 595/2/6 607/2/6 609/2/6
f 609/2/6 607/2/6 610/2/6
f 595/2/6 609/2/6 611/2/6
f 611/2/6 609/2/6 612/2/6
f 595/2/6 611/2/6 613/2/6
f 613/2/6 611/2/6 614/2/6
f 595/2/6 613/2/6 615/2/6
f 615/2/6 613/2/6 616/2/6
f 595/2/6 615/2/6 617/2/6
f 617/2/6 615/2/6 618/2/6
f 595/2/6 617/2/6 619/2/6
f 619/2/6 617/2/6 620/2/6
f 595/2/6 619/2/6 621/2/6
f 621/2/6 619/2/6 622/2/6
f 595/2/6 621/2/6 623/2/6
f 623/2/6 621/2/6 624/2/6
f 595/2/6 623/2/6 625/2/6
f 625/2/6 623/2/6 626/2/6
f 595/2/6 625/2/6 627/2/6
f 627/2/6 625/2/6 628/2/6
f 595/2/6 627/2/6 629/2/6
f 629/2/6 627/2/6 630/2/6
